<svg xmlns="http://www.w3.org/2000/svg" width="852" height="200" viewBox="0 0 852 200" role="img" aria-label="Top languages, and commits by hour" font-family="-apple-system, BlinkMacSystemFont, 'Segoe UI', Ubuntu, Helvetica, Arial, sans-serif">
<title>Top languages, and commits by hour</title>
<rect x="0.5" y="0.5" width="851" height="199" rx="6" fill="#FFFFFF" stroke="#D0D7DE"/>
<text x="28" y="36" text-anchor="start" font-size="13" font-weight="600" fill="#57606A">Top languages by repo</text>
<circle cx="336" cy="122" r="50" fill="none" stroke="#f1e05a" stroke-width="18" stroke-dasharray="209.44 104.72" stroke-dashoffset="-0.00" transform="rotate(-90 336 122)"/>
<circle cx="336" cy="122" r="50" fill="none" stroke="#7355dd" stroke-width="18" stroke-dasharray="34.91 279.25" stroke-dashoffset="-209.44" transform="rotate(-90 336 122)"/>
<circle cx="336" cy="122" r="50" fill="none" stroke="#dea584" stroke-width="18" stroke-dasharray="34.91 279.25" stroke-dashoffset="-244.35" transform="rotate(-90 336 122)"/>
<circle cx="336" cy="122" r="50" fill="none" stroke="#89e051" stroke-width="18" stroke-dasharray="34.91 279.25" stroke-dashoffset="-279.25" transform="rotate(-90 336 122)"/>
<rect x="28" y="74" width="11" height="11" rx="2" fill="#f1e05a"/>
<text x="48" y="84" text-anchor="start" font-size="14" font-weight="400" fill="#1F2328">JavaScript</text>
<text x="240" y="84" text-anchor="end" font-size="14" font-weight="400" fill="#57606A">67%</text>
<rect x="28" y="100" width="11" height="11" rx="2" fill="#7355dd"/>
<text x="48" y="110" text-anchor="start" font-size="14" font-weight="400" fill="#1F2328">C#</text>
<text x="240" y="110" text-anchor="end" font-size="14" font-weight="400" fill="#57606A">11%</text>
<rect x="28" y="126" width="11" height="11" rx="2" fill="#dea584"/>
<text x="48" y="136" text-anchor="start" font-size="14" font-weight="400" fill="#1F2328">Rust</text>
<text x="240" y="136" text-anchor="end" font-size="14" font-weight="400" fill="#57606A">11%</text>
<rect x="28" y="152" width="11" height="11" rx="2" fill="#89e051"/>
<text x="48" y="162" text-anchor="start" font-size="14" font-weight="400" fill="#1F2328">Shell</text>
<text x="240" y="162" text-anchor="end" font-size="14" font-weight="400" fill="#57606A">11%</text>
<text x="454" y="36" text-anchor="start" font-size="13" font-weight="600" fill="#57606A">Commits by hour (UTC+3)</text>
<rect x="456.0" y="142.1" width="11.3" height="27.9" rx="2" fill="#B6D0F0"/>
<rect x="471.3" y="158.9" width="11.3" height="11.1" rx="2" fill="#B6D0F0"/>
<rect x="486.7" y="162.6" width="11.3" height="7.4" rx="2" fill="#B6D0F0"/>
<rect x="502.0" y="144.0" width="11.3" height="26.0" rx="2" fill="#B6D0F0"/>
<rect x="517.3" y="168.1" width="11.3" height="1.9" rx="2" fill="#B6D0F0"/>
<rect x="532.7" y="168.5" width="11.3" height="1.5" rx="2" fill="#B6D0F0"/>
<rect x="548.0" y="157.0" width="11.3" height="13.0" rx="2" fill="#B6D0F0"/>
<rect x="563.3" y="140.3" width="11.3" height="29.7" rx="2" fill="#B6D0F0"/>
<rect x="578.7" y="162.6" width="11.3" height="7.4" rx="2" fill="#B6D0F0"/>
<rect x="594.0" y="168.1" width="11.3" height="1.9" rx="2" fill="#B6D0F0"/>
<rect x="609.3" y="158.9" width="11.3" height="11.1" rx="2" fill="#B6D0F0"/>
<rect x="624.7" y="138.4" width="11.3" height="31.6" rx="2" fill="#B6D0F0"/>
<rect x="640.0" y="66.0" width="11.3" height="104.0" rx="2" fill="#0969DA"/>
<rect x="655.3" y="136.6" width="11.3" height="33.4" rx="2" fill="#B6D0F0"/>
<rect x="670.7" y="136.6" width="11.3" height="33.4" rx="2" fill="#B6D0F0"/>
<rect x="686.0" y="138.4" width="11.3" height="31.6" rx="2" fill="#B6D0F0"/>
<rect x="701.3" y="103.1" width="11.3" height="66.9" rx="2" fill="#B6D0F0"/>
<rect x="716.7" y="134.7" width="11.3" height="35.3" rx="2" fill="#B6D0F0"/>
<rect x="732.0" y="125.4" width="11.3" height="44.6" rx="2" fill="#B6D0F0"/>
<rect x="747.3" y="144.0" width="11.3" height="26.0" rx="2" fill="#B6D0F0"/>
<rect x="762.7" y="92.0" width="11.3" height="78.0" rx="2" fill="#B6D0F0"/>
<rect x="778.0" y="77.1" width="11.3" height="92.9" rx="2" fill="#B6D0F0"/>
<rect x="793.3" y="93.9" width="11.3" height="76.1" rx="2" fill="#B6D0F0"/>
<rect x="808.7" y="121.7" width="11.3" height="48.3" rx="2" fill="#B6D0F0"/>
<text x="461.6666666666667" y="188" text-anchor="middle" font-size="11" font-weight="400" fill="#57606A">00</text>
<text x="553.6666666666666" y="188" text-anchor="middle" font-size="11" font-weight="400" fill="#57606A">06</text>
<text x="645.6666666666666" y="188" text-anchor="middle" font-size="11" font-weight="400" fill="#57606A">12</text>
<text x="737.6666666666666" y="188" text-anchor="middle" font-size="11" font-weight="400" fill="#57606A">18</text>
<line x1="426.0" y1="30" x2="426.0" y2="172" stroke="#D0D7DE"/>
</svg>
